<svg xmlns="http://www.w3.org/2000/svg" width="22" height="18" viewBox="0 0 22 18">
    <path fill="#4F9FFD" fill-rule="nonzero" d="M14.047 11.132c1.508-2.677 2.057-5.22 2.057-5.22h-5.073V4.036h6.033v-.803H11.03V.424H8.288v2.81H2.804v.803h5.484v1.874H3.626v.804h9.461c0 .133 0 .133-.137.267 0 .937-.685 2.276-1.234 3.347-6.993-2.677-9.05-1.071-9.598-.803-4.662 3.212-.274 7.228.411 7.094 4.937 1.071 8.09-.937 10.284-3.48.137.134.274.134.412.134 1.508.803 8.775 4.15 8.775 4.15v-4.016c-1.097 0-5.073-1.34-7.953-2.276zm-3.565 1.205c-3.428 4.283-7.541 2.945-8.227 2.677-1.645-.402-2.194-3.347-.137-4.284 3.428-1.07 6.445.134 8.638 1.205a1.657 1.657 0 0 1-.274.402z"/>
</svg>
