<?xml version="1.0" standalone="no"?><!DOCTYPE svg PUBLIC "-//W3C//DTD SVG 1.1//EN" "http://www.w3.org/Graphics/SVG/1.1/DTD/svg11.dtd"><svg t="1647433990809" class="icon" viewBox="0 0 1024 1024" version="1.1" xmlns="http://www.w3.org/2000/svg" p-id="7805" xmlns:xlink="http://www.w3.org/1999/xlink" width="200" height="200"><defs><style type="text/css"></style></defs><path d="M70.13093706 306.9175214l407.34804194 175.09061593v511.73960945L119.34410399 834.75773441A82.85044939 82.85044939 0 0 1 70.13093706 759.00480599v-452.08728459z m883.73812588-10.57724113v462.66452572a82.85044939 82.85044939 0 0 1-49.21316693 75.72531075L560.32942837 987.61681353V477.67229758L953.86906294 296.31266387zM545.63728245 29.81038459l359.01861356 159.431881c12.48280147 5.52336372 23.11527538 13.94649188 31.26223709 24.2199489l-420.41079784 194.69855605-433.30785028-186.24781021c8.56121268-14.13981046 21.40303233-25.68363931 37.14461901-32.67069474l359.01861356-159.431881a82.85044939 82.85044939 0 0 1 67.2745649 0z" p-id="7806" fill="#8590a6"></path></svg>